<svg xmlns="http://www.w3.org/2000/svg" xmlns:xlink="http://www.w3.org/1999/xlink" viewBox="0 0 160 100" class="boat" shape-rendering="auto" preserveAspectRatio="none">

<g>
    <!-- <path id="boat-base" d="M -24 12 C -13 30 13 30 24 12 H -24" />
    <path id="boat-pole" d="M 1 12 V -21 H 0 V 12 H 1" />
    <path id="right-wing" d="M 1 5 H 16 C 16 -2 10 -13 1 -21 C 3 -11 5 -3 1 5" />
    <path id="left-wing" d="M 0 5 H -18 C -19 -8 -15 -15 0 -21 C -4 -12 -4 2 0 5" /> -->

    <path fill="aquamarine" d="M 4.05 5.43 c -0.6461 0 -1.17 0.5239 -1.17 1.17 c 0 0.5169 0.3352 0.9555 0.8002 1.1102 c 0.0584 0.0108 0.0773 -0.0255 0.0773 -0.0562 v -0.2178 c -0.3255 0.0708 -0.3932 -0.1381 -0.3932 -0.1381 c -0.0532 -0.1352 -0.13 -0.1712 -0.13 -0.1712 c -0.1062 -0.0726 0.0081 -0.0711 0.0081 -0.0711 c 0.1175 0.0082 0.1793 0.1206 0.1793 0.1206 c 0.1043 0.1788 0.2737 0.1271 0.3405 0.0972 c 0.0104 -0.0756 0.0407 -0.1272 0.0743 -0.1564 c -0.2599 -0.0297 -0.533 -0.1301 -0.533 -0.5783 c 0 -0.1278 0.0457 -0.2321 0.1205 -0.3141 c -0.0121 -0.0295 -0.0522 -0.1486 0.0114 -0.3097 c 0 0 0.0983 -0.0314 0.3219 0.1199 c 0.0933 -0.0259 0.1933 -0.0389 0.2928 -0.0394 c 0.0994 0.0005 0.1996 0.0135 0.2931 0.0394 c 0.2234 -0.1513 0.3215 -0.1199 0.3215 -0.1199 c 0.0637 0.1612 0.0236 0.2802 0.0115 0.3097 c 0.0751 0.0819 0.1204 0.1863 0.1204 0.3141 c 0 0.4494 -0.2737 0.5483 -0.5342 0.5773 c 0.0419 0.0363 0.0802 0.1075 0.0802 0.2167 v 0.3211 c 0 0.0311 0.0187 0.0677 0.0781 0.0562 c 0.4646 -0.1549 0.7994 -0.5934 0.7994 -1.1101 c 0 -0.6461 -0.5239 -1.17 -1.17 -1.17 z M 0.3 10.5 C 3.6 15.9 11.4 15.9 14.7 10.5 H 0.3 M 7.8 10.5 V 0.6 C 7.8 0.3 7.5 0.3 7.5 0.6 V 10.5 H 7.8 M 7.8 9 H 12.6 C 13.2 5.7 11.7 2.7 7.8 0.6 C 8.4 3.6 9 6 7.8 9 M 7.5 9 H 1.2 C 1.8 4.2 3.3 1.5 7.5 0.6 C 6.3 2.1 5.7 7.8 7.5 9" />
</g>


<style>
    
</style>    
</svg>