<svg 
    xmlns:xlink="http://www.w3.org/1999/xlink" 
    xmlns="http://www.w3.org/2000/svg" 
    viewBox="0 65 160 40" 
    preserveAspectRatio="none" 
    shape-rendering="auto"
    class="wave"
>
    <defs>
        <path id="wave-path" d="M -166 35 V 69 H -56 V 35 C -78 55 -78 15 -102 35 C -126 55 -146 15 -166 35 M -56 35 V 69 H 56 V 35 C 32 55 32 15 8 35 C -16 55 -35 15 -56 35" />
    </defs>
    <defs>
        <linearGradient id="gradient-fill" x1="0" y1="0" x2="0" y2="85" gradientUnits="userSpaceOnUse">
                <stop offset="0" stop-color="#b403b4" stop-opacity="0.4"/>
                <stop offset="1" stop-color="#bf9bc9" stop-opacity="0.6"/>
        </linearGradient>
    </defs>
    <g class="wave-motion">
        <use xlink:href="#wave-path" x="70" y="44" fill="url(#gradient-fill)"/>
        <path id="boat" fill="aquamarine" d="M 6.075 8.145 c -0.9691 0 -1.755 0.7858 -1.755 1.755 c 0 0.7754 0.5028 1.4333 1.2003 1.6654 c 0.0876 0.0162 0.116 -0.0382 0.116 -0.0844 v -0.3267 c -0.4882 0.1062 -0.5899 -0.2071 -0.5899 -0.2071 c -0.0799 -0.2029 -0.1949 -0.2568 -0.1949 -0.2568 c -0.1593 -0.1089 0.0121 -0.1066 0.0121 -0.1066 c 0.1763 0.0123 0.2689 0.1809 0.2689 0.1809 c 0.1565 0.2682 0.4105 0.1907 0.5107 0.1458 c 0.0156 -0.1134 0.0611 -0.1908 0.1115 -0.2346 c -0.3898 -0.0446 -0.7995 -0.1951 -0.7995 -0.8674 c 0 -0.1917 0.0686 -0.3482 0.1808 -0.4711 c -0.0181 -0.0443 -0.0783 -0.2229 0.0171 -0.4645 c 0 0 0.1474 -0.0471 0.4828 0.1799 c 0.1399 -0.0389 0.29 -0.0584 0.4392 -0.0591 c 0.1492 0.0008 0.2994 0.0202 0.4396 0.0591 c 0.335 -0.227 0.4822 -0.1799 0.4822 -0.1799 c 0.0955 0.2418 0.0354 0.4203 0.0173 0.4645 c 0.1126 0.1229 0.1806 0.2795 0.1806 0.4711 c 0 0.6741 -0.4105 0.8225 -0.8013 0.866 c 0.0629 0.0544 0.1203 0.1612 0.1203 0.325 v 0.4816 c 0 0.0467 0.0281 0.1015 0.1172 0.0842 c 0.6969 -0.2324 1.1991 -0.8901 1.1991 -1.6652 c 0 -0.9692 -0.7858 -1.755 -1.755 -1.755 z M 0.45 15.75 C 5.4 23.85 17.1 23.85 22.05 15.75 H 0.45 M 11.7 15.75 V 0.9 C 11.7 0.45 11.25 0.45 11.25 0.9 V 15.75 H 11.7 M 11.7 13.5 H 18.9 C 19.8 8.55 17.55 4.05 11.7 0.9 C 12.6 5.4 13.5 9 11.7 13.5 M 11.25 13.5 H 1.8 C 2.7 6.3 4.95 2.25 11.25 0.9 C 9.45 3.15 8.55 11.7 11.25 13.5" />
        <use xlink:href="#wave-path" x="70" y="48" fill="url(#gradient-fill)"/>
        <use xlink:href="#wave-path" x="70" y="52" fill="url(#gradient-fill)"/>
    </g>
    <style>
        .wave{
            width: 100%;
            height: 150px;
            border-radius: 25px;
        }
        #boat{
            transform: translate(70px, 63px);
            animation: float 10s cubic-bezier(.55, .5, .45, .5) alternate infinite;
        }
        .wave-motion :nth-child(1){
            animation: move-right 10s ease-in-out alternate infinite;
        }
        .wave-motion>:nth-child(3){
            animation: move-left 8s ease-in-out alternate-reverse infinite;
        }
        .wave-motion>:nth-child(4){
            animation: move-right 5s ease-in-out alternate infinite;
        }

        @keyframes float{
            0%{
                transform: translate(30px, 65px) rotate(10deg);
            }
            10%{
                transform: translate(35px, 69px) rotate(0deg);
            }
            20%{
                transform: translate(32px, 62px) rotate(15deg);
            }
            30%{
                transform: translate(35px, 65px) rotate(18deg);
            }
            40%{
                transform: translate(40px, 68px) rotate(0deg);
            }
            50%{
                transform: translate(45px, 65px) rotate(10deg);
            }
            60%{
                transform: translate(40px, 69px) rotate(0deg);
            }
            70%{
                transform: translate(46px, 65px) rotate(-10deg);
            }
            80%{
                transform: translate(50px, 63px) rotate(0deg);
            }
            90%{
                transform: translate(55px, 65px) rotate(10deg);
            }
            100%{
                transform: translate(60px, 62px) rotate(0deg);
            }
        }

        @keyframes move-right {
            0% {
                transform: translateX(40px);
            }
            100% {
                transform: translateX(90px);
            }
        }
        @keyframes move-left{
            0% {
                transform: translateX(40px);
            }
            100% {
                transform: translateX(90px);
            }
        }
    </style>
</svg>